<svg height="24" viewBox="0 0 22 24" width="22" xmlns="http://www.w3.org/2000/svg">
    <g fill="#2E3957" fill-rule="evenodd">
        <path
            d="M19.937.223H7.1a1.674 1.674 0 0 0-1.418.793L1.217 5.48C.71 5.784.4 6.33.402 6.92v15.07c0 .924.75 1.674 1.674 1.674h17.86c.925 0 1.675-.75 1.675-1.674V1.898c0-.925-.75-1.675-1.674-1.675zM5.425 3.64v1.608H3.818l1.607-1.608zm14.512 18.352H2.077V6.977h.033l.033-.034H7.1V1.987l.033-.034V1.92h12.781l.023 20.07z" />
        <path
            d="M16.588 13.06H5.425a.837.837 0 0 0 0 1.675h11.163a.837.837 0 0 0 0-1.675zM14.913 16.967H5.425a.837.837 0 1 0 0 1.675h9.488a.837.837 0 0 0 0-1.675zM12.68 10.828h3.35c.925 0 1.674-.75 1.674-1.675V5.805c0-.925-.75-1.675-1.674-1.675h-3.35c-.924 0-1.673.75-1.673 1.675v3.348c0 .925.75 1.675 1.674 1.675zm0-5.023h3.35v3.348h-3.35V5.805z" />
    </g>
</svg>
